<?xml version="1.0" encoding="UTF-8" standalone="no"?>
<!-- Created with Inkscape (http://www.inkscape.org/) -->

<svg
   xmlns:dc="http://purl.org/dc/elements/1.1/"
   xmlns:cc="http://creativecommons.org/ns#"
   xmlns:rdf="http://www.w3.org/1999/02/22-rdf-syntax-ns#"
   xmlns:svg="http://www.w3.org/2000/svg"
   xmlns="http://www.w3.org/2000/svg"
   version="1.1"
   width="592.90906"
   height="592.90906"
   id="svg2">
  <defs
     id="defs4" />
  <rect
     width="411.26324"
     height="411.26321"
     x="-205.63162"
     y="213.61864"
     transform="matrix(0.70710678,-0.70710678,0.70710678,0.70710678,0,0)"
     id="rect3859"
     style="fill:none;stroke:#fb0421;stroke-width:8;stroke-linecap:round;stroke-linejoin:miter;stroke-miterlimit:4;stroke-opacity:1;stroke-dasharray:none" />
  <metadata
     id="metadata3530">
    <rdf:RDF>
      <cc:Work
         rdf:about="">
        <dc:title></dc:title>
      </cc:Work>
    </rdf:RDF>
  </metadata>
  <g
     transform="matrix(0.76604444,-0.64278761,0.64278761,0.76604444,53.315941,361.74873)"
     id="g3761">
    <g
       transform="matrix(0.81713613,0,0,0.81713613,-12.472687,-47.058385)"
       id="g4320"
       style="stroke-width:9.79029083;stroke-miterlimit:4;stroke-dasharray:none">
      <path
         d="m 351.16871,306.24181 -55.65084,-0.91778 c -15.61325,-0.25749 -31.22457,-3.10544 -45.65085,-9.08222 -14.42628,-5.97677 -27.65826,-14.82017 -38.69839,-25.86349 -11.04013,-11.04331 -19.87971,-24.27786 -25.85231,-38.70586 -5.97261,-14.42801 -9.07354,-30.03812 -9.06902,-45.65348 -0.005,-15.61536 3.09641,-31.22547 9.06902,-45.65348 5.9726,-14.428 14.81218,-27.66255 25.85231,-38.70586 11.04013,-11.043323 24.27211,-19.88672 38.69839,-25.863494 14.42628,-5.976775 30.03549,-9.088014 45.65085,-9.08222 l 37.65084,0.01397"
         id="path3787-1-8"
         style="fill:none;stroke:rgb(1,1,1);stroke-width:9.79029083;stroke-linecap:butt;stroke-linejoin:miter;stroke-miterlimit:4;stroke-opacity:1;stroke-dasharray:none" />
      <path
         d="m 177.31875,170.40588 151.59015,0 -42.41743,43.80816 136.98743,0"
         id="path3759"
         style="fill:none;stroke:rgb(0,0,0);stroke-width:9.79029083;stroke-linecap:butt;stroke-linejoin:miter;stroke-miterlimit:4;stroke-opacity:1;stroke-dasharray:none" />
    </g>
  </g>
</svg>
